<svg xmlns="http://www.w3.org/2000/svg" width="14.562" height="19.614" viewBox="0 0 14.562 19.614">
  <g id="surface1" transform="translate(0.069 0.05)">
    <path id="Path_2048" data-name="Path 2048" d="M.4,221.223a1.641,1.641,0,0,1,1.348,1.349.424.424,0,0,0,.837,0,1.64,1.64,0,0,1,1.348-1.349.424.424,0,0,0,0-.837,1.641,1.641,0,0,1-1.348-1.349.424.424,0,0,0-.837,0A1.641,1.641,0,0,1,.4,220.386a.424.424,0,0,0,0,.837ZM2.171,220.2a2.488,2.488,0,0,0,.606.606,2.487,2.487,0,0,0-.606.606,2.489,2.489,0,0,0-.606-.606A2.489,2.489,0,0,0,2.171,220.2Zm0,0" transform="translate(-0.049 -218.684)" fill="#2b68a0" stroke="#2b68a0" stroke-width="0.1"/>
    <path id="Path_2051" data-name="Path 2051" d="M13.151,371.523V367.88A5.945,5.945,0,0,0,9.4,362.365l1.154-2.218a.424.424,0,0,0-.147-.551l-.424-.272a2.249,2.249,0,0,0-2.172-.131,1.4,1.4,0,0,1-1.2,0,2.245,2.245,0,0,0-2.172.131l-.424.272a.424.424,0,0,0-.147.551l1.153,2.218a5.946,5.946,0,0,0-3.747,5.515v3.642l-.885.885a1.324,1.324,0,0,0,.936,2.261H13.1a1.324,1.324,0,0,0,.936-2.261ZM4.8,360.1l.1-.063a1.394,1.394,0,0,1,1.347-.08,2.254,2.254,0,0,0,1.939,0,1.394,1.394,0,0,1,1.347.08l.1.063-1.044,2.007a5.743,5.743,0,0,0-2.741,0Zm8.3,13.72H1.324a.476.476,0,0,1-.336-.812L2,372a.423.423,0,0,0,.125-.3V367.88a5.091,5.091,0,1,1,10.181,0V371.7a.424.424,0,0,0,.125.3l1.009,1.009a.476.476,0,0,1-.336.812Zm0,0" transform="translate(0 -355.154)" fill="#2b68a0" stroke="#2b68a0" stroke-width="0.1"/>
    <path id="Path_2052" data-name="Path 2052" d="M204.7,595.2h-.848a.424.424,0,1,1,0-.849h1.7V593.5H204.7v-.848h-.848v.848a1.273,1.273,0,1,0,0,2.545h.848a.424.424,0,1,1,0,.849h-1.7v.848h.849v.849h.848v-.849a1.273,1.273,0,1,0,0-2.545Zm0,0" transform="translate(-197.067 -582.472)" fill="#2b68a0" stroke="#2b68a0" stroke-width="0.1"/>
  </g>
</svg>
