<svg xmlns="http://www.w3.org/2000/svg" width="15.046" height="14.75" viewBox="0 0 15.046 14.75">
  <path id="Icon_material-notifications-active" data-name="Icon material-notifications-active" d="M6.942,4.859l-1-1A7.319,7.319,0,0,0,3.045,9.367h1.4A5.93,5.93,0,0,1,6.942,4.859Zm8.7,4.508h1.4a7.364,7.364,0,0,0-2.893-5.512l-1,1A5.965,5.965,0,0,1,15.641,9.367Zm-1.383.351A4.278,4.278,0,0,0,11.1,5.281V4.8a1.053,1.053,0,1,0-2.106,0v.477A4.266,4.266,0,0,0,5.832,9.718v3.511l-1.4,1.4v.7H15.662v-.7l-1.4-1.4Zm-4.213,7.723a1.23,1.23,0,0,0,.281-.028,1.425,1.425,0,0,0,1.011-.828,1.41,1.41,0,0,0,.105-.548H8.634A1.414,1.414,0,0,0,10.045,17.441Z" transform="translate(-2.523 -3.191)" fill="none" stroke="#eee" stroke-width="1"/>
</svg>
