<svg xmlns="http://www.w3.org/2000/svg" width="18.765" height="20.747" viewBox="0 0 18.765 20.747">
  <path id="Icon_open-timer" data-name="Icon open-timer" d="M4.993,0V2.5h2.5v.075a8.744,8.744,0,1,0,9.986,8.663,8.48,8.48,0,0,0-.624-3.121l-2.272.949a6.007,6.007,0,0,1,.4,2.2A6.241,6.241,0,1,1,8.738,5.018a6.1,6.1,0,0,1,2.2.4l.849-2.347a10.453,10.453,0,0,0-1.8-.4v-.15h2.5V.025H4.993ZM17.475,2.9S8.363,9.911,7.889,10.385a1.22,1.22,0,0,0,0,1.723,1.178,1.178,0,0,0,1.723,0c.242-.242,2.1-2.413,4.089-4.743l.028-.033C15.6,5.135,17.5,2.9,17.5,2.9Z" transform="translate(0.4 0.375)" fill="#2b68a0" stroke="#fff" stroke-width="0.8"/>
</svg>
