<svg xmlns="http://www.w3.org/2000/svg" width="17.953" height="14.641" viewBox="0 0 17.953 14.641">
  <path id="Path_1617" data-name="Path 1617" d="M17.728,12.034A.646.646,0,0,0,17.658,11L9.634,5.088a1.146,1.146,0,0,0-1.3.013L.279,11.317a.642.642,0,0,0-.039,1.03l.2.177A1,1,0,0,0,1.65,12.6l.6-.454v6.645a.816.816,0,0,0,.876.738H6.266a.816.816,0,0,0,.876-.738V14.145h4v4.649a.762.762,0,0,0,.823.737h3.326a.816.816,0,0,0,.876-.738V12.242l.371.274c.2.151.634.03.96-.272Z" transform="translate(0 -4.89)" fill="#fff"/>
</svg>
