<svg xmlns="http://www.w3.org/2000/svg" width="4" height="16" viewBox="0 0 4 16">
  <g id="Group_84889" data-name="Group 84889" transform="translate(188 -772) rotate(90)">
    <path id="Shape" d="M2,0A2,2,0,1,0,4,2,2,2,0,0,0,2,0Z" transform="translate(788 188) rotate(180)" fill="#454545"/>
    <path id="Shape-2" data-name="Shape" d="M2,0A2,2,0,1,0,4,2,2,2,0,0,0,2,0Z" transform="translate(776 188) rotate(180)" fill="#454545"/>
    <path id="Shape-3" data-name="Shape" d="M2,0A2,2,0,1,0,4,2,2,2,0,0,0,2,0Z" transform="translate(782 188) rotate(180)" fill="#454545"/>
  </g>
</svg>
