<svg xmlns="http://www.w3.org/2000/svg" width="22.123" height="14.442" viewBox="0 0 22.123 14.442">
  <path id="Icon_material-people" data-name="Icon material-people" d="M15.9,13.261a2.88,2.88,0,1,0-2.88-2.88A2.868,2.868,0,0,0,15.9,13.261Zm-7.681,0a2.88,2.88,0,1,0-2.88-2.88A2.868,2.868,0,0,0,8.221,13.261Zm0,1.92c-2.237,0-6.721,1.123-6.721,3.36v2.4H14.942v-2.4C14.942,16.3,10.458,15.181,8.221,15.181Zm7.681,0c-.278,0-.6.019-.931.048a4.052,4.052,0,0,1,1.891,3.312v2.4h5.761v-2.4C22.623,16.3,18.139,15.181,15.9,15.181Z" transform="translate(-1 -7)" fill="none" stroke="#eee" stroke-width="1"/>
</svg>
