<svg xmlns="http://www.w3.org/2000/svg" width="17.65" height="17.334" viewBox="0 0 17.65 17.334">
  <g id="dot" transform="translate(0 -2.471)">
    <g id="Group_8547" data-name="Group 8547" transform="translate(0 2.471)">
      <path id="Path_4486" data-name="Path 4486" d="M2.914,2.471A2.064,2.064,0,1,0,4.978,4.535,2.066,2.066,0,0,0,2.914,2.471Z" transform="translate(-0.796 -2.471)" fill="#fff"/>
      <path id="Path_4487" data-name="Path 4487" d="M107.433,2.471A2.064,2.064,0,1,0,109.5,4.535,2.066,2.066,0,0,0,107.433,2.471Z" transform="translate(-98.635 -2.471)" fill="#fff"/>
      <path id="Path_4488" data-name="Path 4488" d="M213.643,6.6a2.064,2.064,0,1,0-2.064-2.064A2.066,2.066,0,0,0,213.643,6.6Z" transform="translate(-198.057 -2.471)" fill="#fff"/>
      <path id="Path_4489" data-name="Path 4489" d="M2.064,110.077A2.064,2.064,0,1,0,0,108.013,2.066,2.066,0,0,0,2.064,110.077Z" transform="translate(0 -99.336)" fill="#fff"/>
      <path id="Path_4490" data-name="Path 4490" d="M106.589,110.077a2.064,2.064,0,1,0-2.064-2.064A2.066,2.066,0,0,0,106.589,110.077Z" transform="translate(-97.845 -99.336)" fill="#fff"/>
      <path id="Path_4491" data-name="Path 4491" d="M212.8,110.077a2.064,2.064,0,1,0-2.065-2.064A2.066,2.066,0,0,0,212.8,110.077Z" transform="translate(-197.264 -99.336)" fill="#fff"/>
      <path id="Path_4492" data-name="Path 4492" d="M2.8,209.108a2.064,2.064,0,1,0,2.064,2.064A2.066,2.066,0,0,0,2.8,209.108Z" transform="translate(-0.692 -195.902)" fill="#fff"/>
      <path id="Path_4493" data-name="Path 4493" d="M107.328,209.108a2.064,2.064,0,1,0,2.064,2.064A2.066,2.066,0,0,0,107.328,209.108Z" transform="translate(-98.537 -195.902)" fill="#fff"/>
      <path id="Path_4494" data-name="Path 4494" d="M213.541,209.108a2.064,2.064,0,1,0,2.064,2.064A2.066,2.066,0,0,0,213.541,209.108Z" transform="translate(-197.962 -195.902)" fill="#fff"/>
    </g>
  </g>
</svg>
