<svg id="mortarboard" xmlns="http://www.w3.org/2000/svg" width="21.253" height="16.722" viewBox="0 0 21.253 16.722">
  <g id="Group_3093" data-name="Group 3093">
    <path id="Path_1934" data-name="Path 1934" d="M21.008,70.072l-10.184-5.36a.423.423,0,0,0-.4,0L.245,70.072a.477.477,0,0,0,0,.834L3.616,72.68v3.562c0,2.2,3.079,3.923,7.01,3.923s7.01-1.723,7.01-3.923V72.68l1.177-.619v3.4a1.478,1.478,0,0,0-.148,2.68l-.941,2.612a.487.487,0,0,0,.05.43.437.437,0,0,0,.364.2h2.235a.437.437,0,0,0,.364-.2.487.487,0,0,0,.05-.43l-.941-2.612a1.478,1.478,0,0,0-.148-2.68V71.594l1.309-.689a.477.477,0,0,0,0-.834Zm-5.936,8.2a9.757,9.757,0,0,1-4.446.963,9.756,9.756,0,0,1-4.446-.963c-1.067-.562-1.679-1.3-1.679-2.028v-3.1l5.927,3.12a.423.423,0,0,0,.4,0l5.927-3.12v3.1h0C16.751,76.969,16.139,77.708,15.072,78.269Zm3.708,2.183.476-1.322.476,1.322Zm.967-3.62a.492.492,0,1,1-.493-.517h0A.505.505,0,0,1,19.747,76.832Zm-.581-6-8.5-.808a.45.45,0,0,0-.481.422.46.46,0,0,0,.4.506l7.074.672-7.034,3.7L1.433,70.488l9.194-4.839,9.194,4.839Z" transform="translate(0 -64.662)" fill="#2b68a0"/>
  </g>
</svg>
