<svg xmlns="http://www.w3.org/2000/svg" width="20" height="20" viewBox="0 0 20 20">
  <path id="Icon_metro-earth2" data-name="Icon metro-earth2" d="M12.321,21.428a9.75,9.75,0,1,1,9.75-9.75A9.75,9.75,0,0,1,12.321,21.428Zm7.9-10.567a.061.061,0,0,0,.03-.043.3.3,0,0,0,.094.171c0,.006,0,0,0,.013s.009,0,.013,0a.3.3,0,0,0,.186.069.3.3,0,0,0,.255-.147.147.147,0,0,1,.013.015c0-.01,0-.019,0-.029a.3.3,0,0,0,.04-.143.305.305,0,0,0-.3-.3.3.3,0,0,0-.251.141s0-.009-.007-.007a.276.276,0,0,0-.047-.146v.316A.319.319,0,0,1,20.223,10.861Zm-14-.091c0-.092-.21-.249-.264-.249,0-.016-.085-.2-.118-.2,0-.063-.222-.348-.258-.224-.023.08.17.189.17.282.036,0,.187.286.217.336.33.558-.247.177-.247-.06a.777.777,0,0,1-.19-.394,1.26,1.26,0,0,1-.161-.306c0-.178-.1-.263-.293-.263C5.07,9.671,4.906,9.44,4.9,9.44A.646.646,0,0,0,4.7,9.1a2.362,2.362,0,0,1-.043-.5,1.681,1.681,0,0,0-.065-.522,8.5,8.5,0,0,0,4.8,11.6c0-.3.026-.664.1-.664,0-.045.038-.234.073-.234a3.692,3.692,0,0,0,0-.394c-.043-.087.057-.2.088-.336.169-.085.049-.934.177-.934a5.788,5.788,0,0,0,.029-1.066c.032,0-.192-.238-.19-.234-.215,0-.366-.345-.366-.5a.919.919,0,0,1-.074-.248c.049,0-.308-.522-.308-.511-.189-.1.01-.251.029-.423-.164-.054,0-.5.073-.5a.137.137,0,0,1,.088-.116c.037.146.207-.073.073-.073,0-.1-.011-.3,0-.35,0-.149-.132-.44-.234-.132-.11-.054-.386-.044-.41-.219.017-.086-.158-.261-.219-.292.057-.15-.3-.35-.425-.35,0-.032-.068-.018-.088-.059-.13,0-.16-.175-.308-.175-.17,0-.341-.116-.5-.116-.052-.1-.3-.063-.352-.175-.127,0-.177-.241-.181-.33-.005-.11-.093-.489-.245-.489Zm12.343-4.89a.031.031,0,0,1,0,.013c.009,0,.02.01.03.015Zm.183.2a.2.2,0,0,1,.032.1c.021,0,.032-.011.049-.015C18.8,6.139,18.775,6.111,18.749,6.081Zm.53,2.776c.01-.263-.219-.219-.292-.366-.076,0-.1-.058-.205-.058a.125.125,0,0,0-.157.048c-.157.06-.062-.076-.18-.076.005-.151-.054-.192-.22-.175-.1.214-.241.343-.219.584.07.016.058.032.044.1.093,0,.659-.029.659-.088.02,0,.118.2.118.029.079,0,.12.185.308.131C19.133,9.025,19.446,8.857,19.278,8.857Zm.03,3.11c.011-.054-.027-.077-.059-.132.083,0-.264-.644-.264-.745-.053-.026-.121-.21-.133-.277a.7.7,0,0,1-.175-.292,1.059,1.059,0,0,1-.278-.365c.1.012.263.033.263-.1-.071,0-.081-.087-.014-.087-.022-.09.048-.154.063-.224a1.653,1.653,0,0,0,.054-.316.483.483,0,0,0-.2.044c0,.059-.179-.015-.2-.015-.038-.077-.317.1-.395-.058-.126-.114-.092-.2-.133-.363-.021-.082-.132-.087-.2-.1-.191-.037-.053.227-.063.288.117,0-.074.145-.074.219-.2-.043-.132-.263-.248-.321-.035-.058-.007-.1-.088-.1,0-.078.041-.219-.044-.248,0-.038-.166-.053-.19-.1-.1,0-.349-.4-.424-.263-.047.085.04.106.057.175.152-.03.137.25.322.219a.507.507,0,0,0,.014.117c.137-.032.121.1.19.1-.05.066-.208-.106-.165.039.025.084.011.156-.1.238,0-.091-.007-.336-.1-.336-.065-.129-.257-.1-.338-.219-.066,0-.091-.2-.2-.219a.229.229,0,0,1-.132.059c-.062.124-.409.013-.409.029-.005,0-.195.464-.206.525-.021.131-.127.133-.158.258-.016.062-.4.033-.4.079a.39.39,0,0,1-.308-.35,2.749,2.749,0,0,1,.059-.526c.034.009.04.021.059.058.1-.038.337.025.337-.088q.147,0,.088.117c.091.017.249.04.249-.088-.054,0-.059,0-.059-.058.175-.182-.132-.347-.132-.438-.062-.021-.189-.155-.1-.1s.355.129.245-.056a.02.02,0,0,0,.014-.014c.031.022.162.157.162.029.036,0,.175-.088.058-.088.011-.066.009-.121.014-.161.186.1.082-.068.176-.131,0,.121.1-.058.161-.058.073-.108.238-.024.278-.146-.09-.029-.073-.253-.073-.335.108.018.228-.146.244-.034.006.043.012.163.034.179.16.084.118-.048.118-.131-.054,0-.125-.188-.132-.278-.044.006-.115.024-.132.058-.16,0-.268-.058-.395-.058a2.263,2.263,0,0,1-.146-.19c-.089-.153.089-.108.117-.116,0-.145.6-.119.63-.351-.2,0,.2-.336.2-.335.135-.115.206-.214.374-.227.071,0,.857-.222.857-.124l.245.006A8.493,8.493,0,0,0,6.667,5.3a.216.216,0,0,1,.023.08c.08-.005.194-.057.22.044a.5.5,0,0,1-.117-.015c.028.226-.1.088-.2.088a.3.3,0,0,0-.1-.038c-.032.03-.066.059-.1.09,0,.01,0,.01,0,.021.034,0,.016.053.114.085a2.172,2.172,0,0,0,.355.079A1.131,1.131,0,0,0,7.1,5.718c0-.012.2-.1.059-.1.019-.08-.016-.1-.1-.1.007-.085.21-.029.293-.029.063-.107,0-.094.058-.191.067-.119.147-.016.191-.13a.2.2,0,0,1,.147.144c.053.044.322.441.322.16.1.032.144.213.146.307.175-.026.19-.157.19-.292.04,0-.015-.065-.015-.088.065-.024.147.062.147-.029.028,0,.029.028.029.058.091.018.149-.01.2.009.038.013.019.213,0,.283-.022.089-.192.09-.192.132-.193.144.227.219.293.307a.81.81,0,0,1-.19-.029c-.1,0-.325.1-.41.029.118,0,.158-.142.176-.277a.21.21,0,0,0-.268.135c-.051.179-.17-.007-.23.113-.023.007-.235.105-.235.073-.238.034-.175.235-.175.453.094.057.286.218.278.307.213.038.291.06.483.088a.233.233,0,0,0,.118.073c0,.126.114.1.219.1,0-.16.186.133.2.19-.026,0,.044.164.059.219-.029-.01-.038,0-.029.029.093.034.239.024.264-.073-.089,0-.059-.1-.059-.161a.11.11,0,0,1,.015-.2c0,.083.3-.052.132-.116a.328.328,0,0,0,0-.317c-.043-.051-.1,0-.119-.077.115-.029.03-.248.029-.35.037-.014.132.023.132,0,.113,0,.3.143.366-.03.188.086.038.168.235.1a.846.846,0,0,0,.249.263c0,.01-.005.073.043.073,0,.047-.029-.027-.029.058.027,0,.176.03.176-.029.094,0,.161-.116.161-.2.059-.038.163.321.234.321.052.082.22.2.22.277.035.036.073.026.073.132.044,0,.132-.175.132-.015a.277.277,0,0,1,.176.16c-.105,0-.005.1-.06.1,0,.1-.226.021-.277.015-.07.314-.493.088-.749.169a.872.872,0,0,0-.409.487c.163,0,.235-.141.381-.19.119,0,.142-.072.249-.1,0,.03.029.014.029.044-.208,0-.082.135-.021.233a.251.251,0,0,0,.129.109.58.58,0,0,0-.049.11h0c-.04.013-.117.042-.132.073-.236.026-.119.01-.1-.046.009.02.093,0,.09,0-.014-.071-.035-.061-.015-.1-.128,0-.19.058-.293.058-.017.035-.107.117-.146.117a.693.693,0,0,1-.176.307c0-.024-.208.131-.19.131-.046.075-.1.073-.118.19a.983.983,0,0,0-.073.233c-.091.06-.124.307-.278.307-.094.188-.264.163-.264.409a1.286,1.286,0,0,1,.1.4c.022.1.056.21-.082.213-.01-.015-.106-.161-.088-.161a.929.929,0,0,0-.117-.314c-.058-.081-.165.013-.249-.023-.036-.072-.279-.088-.366-.088.014.054.054.071.058.132a.332.332,0,0,1-.188.052c-.127-.018-.112-.117-.252-.1a.423.423,0,0,0-.381.431,1.29,1.29,0,0,0,0,.438c0,.124.1.213.1.307.1,0,.211.219.308.219.011.077-.049.09.117.088,0-.009.09-.057.1-.117-.115-.028,0-.175.073-.2,0,.1.146-.035.146-.044l.161-.059c0-.118.11.012.029.059-.079,0-.073.132-.117.132-.019.094-.056.175-.078.267-.028.113.063.124.034.23a1.832,1.832,0,0,0,.352,0,.1.1,0,0,0-.015-.059c.17,0,.015.321.118.321,0,.121.058.216.058.292a.194.194,0,0,1,.1.219c.1.013.307.038.307-.088.148,0,.158.1.147.2.295,0,.11-.292.233-.292.012-.048.032-.057.06-.025.06.032.106-.06.154-.09a.4.4,0,0,1,.079-.041c.041.025.045.018.063.046a.439.439,0,0,0,.23-.093c.105.013.071.239.269.253a.7.7,0,0,0,.331-.02c.017-.012.08.04.087.062.066,0,.061.057.089.056a.024.024,0,0,0,.03.014c.009.025.061.032.088.1,0,.063.132.074.132.116.094.048-.032.06.113.1a1.052,1.052,0,0,0,.239.071c.027-.1.116.014.161.014.023.048.035.012.058.059.136.113.046.069.1.19.065.043.086.191.1.277-.052,0-.015.2-.015.219-.063,0,.162.12.162-.03.093.015.154.116.219.116-.038.088.1.155.1.015.139.014.1.221.088.292.1,0,.133-.057.221-.068a.6.6,0,0,1,.321-.1.609.609,0,0,1,.609.609.6.6,0,0,1-.517.59,1.066,1.066,0,0,1-.077.083c0,.029-.007.321-.015.321,0,.059-.044.38-.088.38,0,.165-.108.195-.146.35-.089.066-.33.175-.367.248-.069,0-.12.059-.19.059-.01.02-.159.161-.132.161-.011.1.008.347-.048.416-.038.045-.092.04-.068.111-.082,0,0,.058-.125.058a.29.29,0,0,0-.232.215.325.325,0,0,1-.141.282c0,.041-.19.054-.19.161.018,0,0,.2,0,.219a.346.346,0,0,0-.219.1c-.191,0-.168.019-.292.1,0,.026-.018.116-.044.116,0,.148-.105.013-.191.088.034,0,.076.146.058.146,0,.129-.08.14-.161.234-.038.026-.075.132-.1.132,0,.087-.043.165-.043.248.018,0,0,.037.014.072.041-.012.042-.058.059-.058,0-.073.116.043.044.043-.06.091-.126.093-.161.219-.037,0-.068.035-.1.077a8.481,8.481,0,0,0,9.407-3.586,2.338,2.338,0,0,1,.066-.493c.06.044.1.126.146,0-.105-.021-.08-.057-.044-.146a.369.369,0,0,0,.187.05c.02-.038.036-.078.056-.116-.06-.046.023-.166.051-.108.015-.029.029-.06.043-.089-.007,0,0,0-.015,0,0-.053.01-.046.044-.073a.054.054,0,0,0,0,.01,8.486,8.486,0,0,0,.839-3.671c0-.043-.006-.085-.007-.128-.016.06-.046.124-.088.139,0,.038-.436.228-.409.307-.077,0-.346.077-.4.175a.68.68,0,0,0-.293.117c-.272,0-.22-.321-.351-.321Zm1.239-3.336h-.324s0,0-.007-.008-.085-.155-.058-.19a.433.433,0,0,1,.052,0c-.027-.067-.057-.133-.087-.2a.421.421,0,0,1-.215.108c0,.025-.13.277,0,.277a.044.044,0,0,0,0,.013.3.3,0,0,0,.026.605h.12c.007.055.037.1.144.127.034.141.285.191.322.043-.106,0-.071-.1-.062-.171h.085a.3.3,0,0,0,0-.609Zm-.888,3.962c.021,0,.162,0,.162-.027a1.489,1.489,0,0,0,.425-.059c0,.189-.159.294-.132.482-.105,0-.059.108-.059.146-.068.042-.079.119-.161.161,0,.085-.19.225-.246.3s-.254.222-.279.325c.007-.024-.349.37-.266.37,0,.074-.1.657.029.657,0,.051.11.541.043.541,0,.157-.1.253-.1.379-.05.034-.121.053-.146.1-.09,0-.133.19-.175.19,0,.2-.059.353-.059.584.016,0-.117.328-.117.35-.108.073-.381.333-.381.468,0,0-.19.267-.219.307a1.886,1.886,0,0,0-.5.117c-.094,0-.336.074-.395-.015,0-.093-.051-.21-.058-.336-.045,0-.052-.19-.1-.19a5.034,5.034,0,0,1-.235-.6.981.981,0,0,0-.059-.248c0-.2-.147-.369-.147-.555-.043,0-.133-.408-.088-.408a4.578,4.578,0,0,1,.106-.593,1.411,1.411,0,0,0-.062-.605c-.025,0-.109-.14-.118-.175a.444.444,0,0,1-.161-.379.988.988,0,0,0,.088-.526.654.654,0,0,0-.367-.044c-.094-.19-.729-.073-.909-.073,0,.1-.442-.02-.483-.1-.108,0-.322-.229-.322-.336a1.2,1.2,0,0,1-.307-.6c-.1-.051-.071-.249-.015-.249a1.041,1.041,0,0,0-.06-.31c-.018-.062.06-.128.06-.2a.881.881,0,0,1,.119-.515,1.991,1.991,0,0,0,.115-.218c.061-.153.079-.007.161-.144.079-.039.124-.169.205-.233.035-.047.037-.066,0-.1a.879.879,0,0,0,.1-.277c.115-.159.034-.087.146-.073.041-.045.11-.161.175-.161a.185.185,0,0,1,.161-.088c0,.088.239-.029.264-.029a.674.674,0,0,1,.366-.175c0-.1.519.028.6.015V9.4c.111.026.313.471.292.57a1.142,1.142,0,0,1,.22,0c0,.094.178.118.259.122.113.005.444-.012.444-.166a.137.137,0,0,1,.147.16c.1.011.686.023.644.146.086,0,.108.147.19.147-.016.1.1.365.19.365a.46.46,0,0,0,.132.306,1.069,1.069,0,0,0,.307.467c-.055.1.083.189.118.292-.008,0,.03.153.073.175,0,.1.218.526.338.526.008.051-.112.074.044.086ZM16.5,9.324c.023-.087.074-.019.121,0,.113.037.074,0,.157-.04C16.774,9.518,16.638,9.338,16.5,9.324Zm-.308-.438c.06,0,.076.268-.088.219,0-.066-.042-.19.044-.19.025.1.043.062.043-.029Zm-.073-.175c.068.029.1.019.088-.029.089.029-.012.093-.029.161C16.128,8.8,16.142,8.782,16.115,8.711Zm-1.568-1.3c-.144-.037.148-.08.161-.116a.068.068,0,0,1-.063-.093c.022-.051.058.06.108.035.059-.006.175-.094.116.076s-.116.3-.336.3c-.079-.079,0-.121.015-.2Zm.542-.6c.118,0,.015.088-.012.088.02.008,0,.079,0,.1.11,0,.112-.068.19-.088-.016.1-.126.117-.019.2.057.044.115.1.092.165.14,0,.16.134.132.292.077,0,.074,0,.074-.074.075.021.069.088,0,.088-.069.137-.252.131-.381.131,0-.106-.021-.113-.119-.083-.134.041-.029-.107-.027-.18.015,0,.3.013.132-.044-.009-.157-.044-.2-.19-.2,0-.107-.038-.1-.055-.217-.025-.174.136.012.188-.177Zm-.044.949c0,.036-.073.065-.088.014.014,0,.02,0,.014-.014Zm-1.2-1.568h-.609a.3.3,0,0,1,0-.609h.609a.3.3,0,1,1,0,.609Zm-3.55,5.393c.034,0,.074.013.074.044C10.323,11.63,10.266,11.672,10.294,11.586Zm-.556.03c-.024.046-.222.038-.249-.015.073,0,.13.03.2,0,0-.04-.034-.073-.058-.116.08,0,.169.061.278.058,0-.068-.03.015,0-.073a.342.342,0,0,1,.161.16,2.174,2.174,0,0,0-.336-.014Zm-.645-.35a.41.41,0,0,1-.264-.132c.073,0,.144.033.19-.044.186.019.2.147.352.147.028.049.188.163.034.177a.339.339,0,0,1-.311-.149Zm.117.409c-.054,0-.144.024-.1-.088C9.18,11.6,9.214,11.626,9.21,11.675Zm.1-.015-.088.015C9.234,11.607,9.3,11.532,9.313,11.66Zm.542.642c-.012.041-.01.043-.058.043,0-.019.009-.038.014-.058ZM8.536,11.09l.044.015c.019.073.058.037.1.015C8.683,11.2,8.486,11.229,8.536,11.09Z" transform="translate(-2.321 -1.678)" fill="#2b68a0" stroke="#fff" stroke-width="0.5"/>
</svg>
